<svg width="24" height="24" viewBox="0 0 24 24" fill="none" xmlns="http://www.w3.org/2000/svg">
<g id="mdi:linkedin">
<path id="Vector" d="M19 2.99951C19.5304 2.99951 20.0391 3.21023 20.4142 3.5853C20.7893 3.96037 21 4.46908 21 4.99951V18.9995C21 19.5299 20.7893 20.0387 20.4142 20.4137C20.0391 20.7888 19.5304 20.9995 19 20.9995H5C4.46957 20.9995 3.96086 20.7888 3.58579 20.4137C3.21071 20.0387 3 19.5299 3 18.9995V4.99951C3 4.46908 3.21071 3.96037 3.58579 3.5853C3.96086 3.21023 4.46957 2.99951 5 2.99951H19ZM18.5 18.4995V13.1995C18.5 12.3349 18.1565 11.5057 17.5452 10.8943C16.9338 10.283 16.1046 9.93951 15.24 9.93951C14.39 9.93951 13.4 10.4595 12.92 11.2395V10.1295H10.13V18.4995H12.92V13.5695C12.92 12.7995 13.54 12.1695 14.31 12.1695C14.6813 12.1695 15.0374 12.317 15.2999 12.5796C15.5625 12.8421 15.71 13.1982 15.71 13.5695V18.4995H18.5ZM6.88 8.55951C7.32556 8.55951 7.75288 8.38251 8.06794 8.06745C8.383 7.75239 8.56 7.32508 8.56 6.87951C8.56 5.94951 7.81 5.18951 6.88 5.18951C6.43178 5.18951 6.00193 5.36756 5.68499 5.6845C5.36805 6.00144 5.19 6.4313 5.19 6.87951C5.19 7.80951 5.95 8.55951 6.88 8.55951ZM8.27 18.4995V10.1295H5.5V18.4995H8.27Z" fill="white"/>
</g>
</svg>
