<svg width="24" height="24" viewBox="0 0 24 24" fill="none" xmlns="http://www.w3.org/2000/svg">
<g id="mdi:github">
<path id="Vector" d="M12 1.99951C10.6868 1.99951 9.38642 2.25817 8.17317 2.76072C6.95991 3.26326 5.85752 3.99986 4.92893 4.92844C3.05357 6.80381 2 9.34735 2 11.9995C2 16.4195 4.87 20.1695 8.84 21.4995C9.34 21.5795 9.5 21.2695 9.5 20.9995V19.3095C6.73 19.9095 6.14 17.9695 6.14 17.9695C5.68 16.8095 5.03 16.4995 5.03 16.4995C4.12 15.8795 5.1 15.8995 5.1 15.8995C6.1 15.9695 6.63 16.9295 6.63 16.9295C7.5 18.4495 8.97 17.9995 9.54 17.7595C9.63 17.1095 9.89 16.6695 10.17 16.4195C7.95 16.1695 5.62 15.3095 5.62 11.4995C5.62 10.3895 6 9.49951 6.65 8.78951C6.55 8.53951 6.2 7.49951 6.75 6.14951C6.75 6.14951 7.59 5.87951 9.5 7.16951C10.29 6.94951 11.15 6.83951 12 6.83951C12.85 6.83951 13.71 6.94951 14.5 7.16951C16.41 5.87951 17.25 6.14951 17.25 6.14951C17.8 7.49951 17.45 8.53951 17.35 8.78951C18 9.49951 18.38 10.3895 18.38 11.4995C18.38 15.3195 16.04 16.1595 13.81 16.4095C14.17 16.7195 14.5 17.3295 14.5 18.2595V20.9995C14.5 21.2695 14.66 21.5895 15.17 21.4995C19.14 20.1595 22 16.4195 22 11.9995C22 10.6863 21.7413 9.38593 21.2388 8.17268C20.7362 6.95942 19.9997 5.85703 19.0711 4.92844C18.1425 3.99986 17.0401 3.26326 15.8268 2.76072C14.6136 2.25817 13.3132 1.99951 12 1.99951Z" fill="white"/>
</g>
</svg>
