<svg width="24" height="24" viewBox="0 0 24 24" fill="none" xmlns="http://www.w3.org/2000/svg">
<g id="mingcute:dribbble-fill" clip-path="url(#clip0_22_86)">
<g id="Group">
<path id="Vector" d="M13.7739 14.4385C14.5399 16.7088 15.055 19.0561 15.3099 21.4385C14.2461 21.8109 13.127 22.0006 11.9999 21.9995C10.0171 22.0026 8.07864 21.4134 6.43291 20.3075C7.19976 18.8865 8.24485 17.6345 9.50589 16.626C10.7669 15.6175 12.2181 14.8732 13.7729 14.4375L13.7739 14.4385ZM21.5729 14.9015C20.8588 17.2477 19.3094 19.2508 17.2179 20.5315C16.9383 18.3339 16.4494 16.1681 15.7579 14.0635C17.7357 13.8591 19.7333 14.147 21.5729 14.9015ZM12.1449 10.4845C12.4769 11.1625 12.7879 11.8545 13.0749 12.5575C9.61152 13.5726 6.67232 15.8829 4.86791 19.0085C3.85397 17.9695 3.07644 16.7238 2.58851 15.3565C2.10059 13.9892 1.9138 12.5327 2.04091 11.0865C5.38391 11.7945 8.91091 11.5885 12.1449 10.4845ZM19.7199 5.64351C21.386 7.67815 22.1899 10.2839 21.9599 12.9035C19.7601 12.0755 17.3881 11.8108 15.0599 12.1335C14.7385 11.3212 14.3866 10.5213 14.0049 9.73551C16.1472 8.73781 18.0852 7.35019 19.7199 5.64351ZM7.26591 3.18951C8.76029 4.88455 10.0772 6.72817 11.1959 8.69151C8.35772 9.59546 5.33287 9.74367 2.41991 9.12151C3.18657 6.58079 4.92921 4.44763 7.26591 3.18951ZM11.9999 1.99951C14.3879 1.99951 16.5809 2.83651 18.2999 4.23351C16.8114 5.79466 15.04 7.05904 13.0799 7.95951C11.9759 5.98331 10.6832 4.11862 9.21991 2.39151C10.1235 2.13083 11.0594 1.99887 11.9999 1.99951Z" fill="white"/>
</g>
</g>
<defs>
<clipPath id="clip0_22_86">
<rect width="24" height="24" fill="white" transform="translate(0 -0.000488281)"/>
</clipPath>
</defs>
</svg>
